<svg xmlns:dc="http://purl.org/dc/elements/1.1/" xmlns:cc="http://creativecommons.org/ns#" xmlns:rdf="http://www.w3.org/1999/02/22-rdf-syntax-ns#" xmlns:svg="http://www.w3.org/2000/svg" xmlns="http://www.w3.org/2000/svg" xmlns:sodipodi="http://sodipodi.sourceforge.net/DTD/sodipodi-0.dtd" xmlns:inkscape="http://www.inkscape.org/namespaces/inkscape" viewBox="0 0 12.7 12.7" version="1.1" x="0px" y="0px" preserveAspectRatio="none" width="100%" height="100%" class="" fill="rgba(64, 92, 133, 1)"><g transform="translate(0,-284.29998)"><path style="" d="m 7.2302596,286.09313 a 0.22890937,0.22890937 0 0 0 -0.2080615,0.1345 l -0.528352,1.16475 a 0.22890937,0.22890937 0 0 0 0.024426,0.23041 l 1.1038408,1.4977 a 3.6786615,3.6786615 0 0 0 -1.2723272,0.58364 3.6786615,3.6786615 0 1 0 0,5.98161 3.6786615,3.6786615 0 1 0 3.0106166,-6.56525 l 1.1038407,-1.4977 a 0.22890937,0.22890937 0 0 0 0.02391,-0.23041 l -0.5283258,-1.16475 a 0.22890937,0.22890937 0 0 0 -0.2080875,-0.1345 z m 0.065976,0.20809 h 1.0013562 l -0.6633439,0.9932 z m 1.3946644,0 h 0.9967828 l -0.3278781,0.96022 z m -0.196914,0.0802 0.7079861,1.01658 h -1.387051 z m -1.3576098,0.0974 0.3136384,0.91914 H 6.7207207 Z m 2.7101526,0 0.4166682,0.91914 H 9.533384 Z m -3.0821532,1.1272 h 0.7567078 l 0.4917912,1.44188 a 3.6786615,3.6786615 0 0 0 -0.1659659,0.0255 z m 0.9764626,0 h 1.5017483 l -0.4857107,1.42005 a 3.6786615,3.6786615 0 0 0 -0.5313663,0 z m 1.7209834,0 h 0.7567074 l -1.0815193,1.46724 a 3.6786615,3.6786615 0 0 0 -0.167473,-0.026 z m -1.0312648,1.61899 a 3.4707818,3.4707818 0 1 1 -2.6594041,1.315 2.6626101,2.6626101 0 0 1 0.4445766,0.40601 2.8704897,2.8704897 0 1 0 0.7516408,-0.68314 3.6786615,3.6786615 0 0 0 -0.4440829,-0.42631 3.4707818,3.4707818 0 0 1 1.9072696,-0.61156 z m -4.0829897,0.003 a 3.4707818,3.4707818 0 0 1 2.5807216,5.62229 2.6626101,2.6626101 0 0 1 -0.4440829,-0.40651 2.8704897,2.8704897 0 1 0 -0.7521344,0.68364 3.6786615,3.6786615 0 0 0 0.4445765,0.42631 3.4707818,3.4707818 0 1 1 -1.8290808,-6.32573 z m -0.1152173,0.80442 a 2.6626101,2.6626101 0 0 1 1.3657432,0.3918 3.6786615,3.6786615 0 0 0 0,4.5418 2.6626101,2.6626101 0 1 1 -1.3657432,-4.9336 z m 4.2347418,0 a 2.6626101,2.6626101 0 1 1 -1.3647297,4.9336 3.6786615,3.6786615 0 0 0 0,-4.5418 2.6626101,2.6626101 0 0 1 1.2586591,-0.38876 2.6626101,2.6626101 0 0 1 0.1060706,-0.003 z m -2.1168642,1.08102 a 2.6626101,2.6626101 0 0 1 0,3.16336 2.6626101,2.6626101 0 0 1 0,-3.16336 z" stroke="none"></path><path style="" d="m 9.5290819,285.11473 -0.3808616,0.3812 a 0.10393983,0.10393983 0 0 0 0.1464323,0.14701 l 0.3815492,-0.38121 a 0.10398972,0.10398972 0 0 0 -0.1471199,-0.147 z" stroke="none"></path><path style="" d="m 7.8357305,285.49593 -0.3808617,-0.3812 a 0.10398972,0.10398972 0 0 0 -0.1471198,0.147 l 0.3808617,0.38121 a 0.1039906,0.1039906 0 0 0 0.1471198,-0.14701 z" stroke="none"></path><path style="" d="m 8.3877737,285.03033 v 0.53911 a 0.10420171,0.10420171 0 0 0 0.2084034,0 v -0.53911 a 0.10420171,0.10420171 0 0 0 -0.2084034,0 z" stroke="none"></path></g></svg>