<svg xmlns="http://www.w3.org/2000/svg" xmlns:xlink="http://www.w3.org/1999/xlink" xmlns:serif="http://www.serif.com/" viewBox="0 0 32 32" version="1.1" xml:space="preserve" style="" x="0px" y="0px" fill-rule="evenodd" clip-rule="evenodd" stroke-linejoin="round" stroke-miterlimit="2" preserveAspectRatio="none" width="100%" height="100%" class="" fill="rgba(64, 92, 133, 1)"><path d="M16,10.298c0.83,-0.831 2.03,-0.691 2.679,-0.074c0.708,0.673 0.807,2.016 0.101,3.362c-0.446,0.899 -1.566,1.813 -2.512,2.413c-0.164,0.103 -0.372,0.103 -0.536,-0c-0.946,-0.6 -2.066,-1.514 -2.512,-2.413c-0.706,-1.346 -0.607,-2.689 0.101,-3.362c0.649,-0.617 1.849,-0.757 2.679,0.074Zm-0,4.681c0.74,-0.496 1.552,-1.162 1.886,-1.841l0.006,-0.012c0.25,-0.474 0.38,-0.947 0.38,-1.362c0,-0.333 -0.081,-0.625 -0.282,-0.815c-0.39,-0.371 -1.157,-0.317 -1.548,0.424c-0.086,0.165 -0.256,0.268 -0.442,0.268c-0.186,-0 -0.356,-0.103 -0.442,-0.268c-0.391,-0.741 -1.158,-0.795 -1.548,-0.424c-0.201,0.19 -0.282,0.482 -0.282,0.815c-0,0.415 0.13,0.888 0.38,1.362l0.006,0.012c0.334,0.679 1.146,1.345 1.886,1.841Z"></path><path d="M4,28.361l24,0c0.276,0 0.5,-0.224 0.5,-0.5c-0,-0.276 -0.224,-0.5 -0.5,-0.5l-24,0c-0.276,0 -0.5,0.224 -0.5,0.5c-0,0.276 0.224,0.5 0.5,0.5Z"></path><path d="M26.5,27.861l-0,-14.002c-0,-5.798 -4.7,-10.498 -10.498,-10.498l-0.004,0c-5.798,0 -10.498,4.7 -10.498,10.498l0,14.002c0,0.276 0.224,0.5 0.5,0.5c0.276,0 0.5,-0.224 0.5,-0.5l-0,-14.002c0,-5.246 4.252,-9.498 9.498,-9.498l0.004,0c5.246,0 9.498,4.252 9.498,9.498l0,14.002c0,0.276 0.224,0.5 0.5,0.5c0.276,0 0.5,-0.224 0.5,-0.5Z"></path><path d="M6,22.624l2,0c0.276,0 0.5,-0.224 0.5,-0.5c-0,-0.276 -0.224,-0.5 -0.5,-0.5l-2,0c-0.276,0 -0.5,0.224 -0.5,0.5c-0,0.276 0.224,0.5 0.5,0.5Z"></path><path d="M23.944,27.861l0,-13.908c0,-4.387 -3.556,-7.944 -7.944,-7.944c0,0 -0,0 -0,0c-4.388,0 -7.944,3.557 -7.944,7.944c-0,6.161 -0,13.908 -0,13.908c-0,0.276 0.224,0.5 0.5,0.5c0.276,0 0.5,-0.224 0.5,-0.5c-0,0 -0,-7.747 -0,-13.908c-0,-3.835 3.109,-6.944 6.944,-6.944c-0,0 0,0 0,0c3.835,0 6.944,3.109 6.944,6.944l0,13.908c0,0.276 0.224,0.5 0.5,0.5c0.276,0 0.5,-0.224 0.5,-0.5Z"></path><path d="M25.992,21.593l-1.952,0.031c-0.276,0.005 -0.496,0.232 -0.492,0.508c0.005,0.276 0.232,0.497 0.508,0.492l1.952,-0.031c0.276,-0.005 0.496,-0.233 0.492,-0.508c-0.005,-0.276 -0.232,-0.497 -0.508,-0.492Z"></path><path d="M26,23.593l-2,-0c-0.276,-0 -0.5,0.224 -0.5,0.5c0,0.276 0.224,0.5 0.5,0.5l2,-0c0.276,-0 0.5,-0.224 0.5,-0.5c0,-0.276 -0.224,-0.5 -0.5,-0.5Z"></path><path d="M8,23.593l-2,-0c-0.276,-0 -0.5,0.224 -0.5,0.5c0,0.276 0.224,0.5 0.5,0.5l2,-0c0.276,-0 0.5,-0.224 0.5,-0.5c0,-0.276 -0.224,-0.5 -0.5,-0.5Z"></path><path d="M15.5,6.509l0,4.555c0,0.276 0.224,0.5 0.5,0.5c0.276,0 0.5,-0.224 0.5,-0.5l0,-4.555c0,-0.276 -0.224,-0.5 -0.5,-0.5c-0.276,0 -0.5,0.224 -0.5,0.5Z"></path><path d="M20.486,14.287c-0.636,-0.474 -1.827,-2.006 -0.978,-6.62c0.05,-0.272 0.311,-0.451 0.582,-0.402c0.272,0.05 0.452,0.311 0.402,0.583c-0.484,2.632 -0.275,4.108 0.082,4.926c0.243,0.556 0.592,0.762 0.602,0.767c0.204,0.077 0.336,0.278 0.323,0.497c-0.281,4.864 2.139,5.964 2.139,5.964c0.254,0.107 0.374,0.4 0.267,0.655c-0.107,0.254 -0.4,0.374 -0.655,0.267c0,-0 -2.97,-1.167 -2.764,-6.637Z"></path><path d="M10.824,13.541c0.01,-0.005 0.359,-0.211 0.602,-0.767c0.357,-0.818 0.566,-2.294 0.082,-4.926c-0.05,-0.272 0.13,-0.533 0.402,-0.583c0.271,-0.049 0.532,0.13 0.582,0.402c0.849,4.614 -0.342,6.146 -0.978,6.62c0.206,5.47 -2.764,6.637 -2.764,6.637c-0.255,0.107 -0.548,-0.013 -0.655,-0.267c-0.107,-0.255 0.013,-0.548 0.267,-0.655c0,-0 2.42,-1.1 2.139,-5.964c-0.013,-0.219 0.119,-0.42 0.323,-0.497Z"></path></svg>